<svg width="457" height="79" viewBox="0 0 457 79" fill="none" xmlns="http://www.w3.org/2000/svg">
<g clip-path="url(#clip0_3_521)">
<g opacity="0.6">
<g opacity="0.6">
<path opacity="0.6" d="M198.982 78.7677H171.574C168.09 78.7677 165.302 75.9795 165.302 72.4942V10.6883C165.302 7.43532 168.09 4.41473 171.574 4.41473H198.982C202.466 4.41473 205.253 7.20297 205.253 10.6883V72.7265C205.253 75.9795 202.466 78.7677 198.982 78.7677Z" fill="#226CEB"/>
<path opacity="0.6" d="M188.762 71.5648C188.762 73.4236 187.368 75.0501 185.278 75.0501C183.42 75.0501 181.794 73.6559 181.794 71.5648C181.794 69.7059 183.187 68.0795 185.278 68.0795C187.136 68.0795 188.762 69.4736 188.762 71.5648Z" fill="#D9E7FA"/>
<path opacity="0.6" d="M201.305 13.0118H169.251V63.8971H201.305V13.0118Z" fill="#B3CFF5"/>
<path opacity="0.6" d="M197.588 64.1294H201.537V13.0118H172.967C184.349 25.0941 192.943 44.6118 197.588 64.1294Z" fill="#D9E7FA"/>
</g>
<path opacity="0.6" d="M136.268 66.9177L136.733 65.9883L138.126 63.6647L120.938 54.8353L119.312 58.0883L118.383 57.6236L116.525 56.6941L114.667 60.4118C111.415 66.6853 113.97 74.353 120.241 77.6059C126.513 80.8589 134.178 78.303 137.43 72.0294L139.288 68.3118L137.43 67.3824L136.268 66.9177Z" fill="#80A7E0"/>
<path opacity="0.6" d="M142.075 13.4765L140.449 16.7294L157.637 25.5589L159.031 23.2353L159.496 22.3059L160.425 22.7706L162.283 23.7L164.141 19.9824C167.393 13.7089 164.838 6.0412 158.799 2.78826C152.527 -0.464679 144.862 2.0912 141.611 8.36473L139.752 12.0824L141.611 13.0118L142.075 13.4765Z" fill="#80A7E0"/>
<path opacity="0.6" d="M154.385 32.2971L154.85 31.3676L156.244 28.3471L150.437 25.5588C149.74 27.1853 147.65 27.65 146.024 26.9529C144.398 26.2559 143.933 24.1647 144.63 22.7706L138.823 19.75L137.197 23.2353L136.268 23.0029L134.41 22.0735L121.635 46.7029L123.493 47.6324L124.422 48.0971L122.564 51.8147L128.371 54.8353C129.068 53.4412 131.158 52.7441 132.552 53.4412C134.178 54.1382 134.642 56.2294 133.945 57.8559L139.752 60.8765L141.146 57.8559L141.61 56.9265L142.54 57.3912L144.398 58.3206L157.173 33.6912L155.082 32.5294L154.385 32.2971Z" fill="#80A7E0"/>
<path opacity="0.6" d="M140.449 16.7294L139.056 19.75L144.862 22.7706C144.166 24.3971 144.63 26.2559 146.256 26.953C147.882 27.65 149.74 27.1853 150.669 25.5588L156.476 28.5794L157.87 25.5588L140.449 16.7294Z" fill="#D9E7FA"/>
<path opacity="0.6" d="M137.894 63.6648L139.288 60.6442L133.481 57.6236C134.178 55.9971 133.713 54.1383 132.087 53.2089C130.461 52.5118 128.603 52.9765 127.906 54.603L122.1 51.5824L120.706 54.603L137.894 63.6648Z" fill="#D9E7FA"/>
<path opacity="0.6" d="M164.141 24.8618L162.283 23.9324L160.192 22.7706L159.495 22.3059L158.799 23.2353L157.637 25.7912L156.244 28.5794L154.618 31.3677L154.385 32.2971L155.082 32.7618L157.173 33.6912L158.799 34.6206L159.728 35.0853L160.192 34.1559L164.373 26.0236L165.07 25.0941L164.141 24.8618Z" fill="#226CEB"/>
<path opacity="0.6" d="M141.378 13.0118L139.52 12.0823L137.662 10.9206L136.733 10.6882L136.268 11.3853L132.087 19.75L131.623 20.6794L132.32 20.9118L134.178 21.8412L136.268 23.0029L136.965 23.2353L139.055 19.75L140.449 16.7294L142.075 13.4765L141.378 13.0118Z" fill="#226CEB"/>
<path opacity="0.6" d="M146.024 59.4824L144.165 58.553L142.307 57.3912L141.378 56.9265L141.146 57.8559L139.52 60.6442L137.894 63.6647L136.733 65.9883L136.268 66.9177L137.197 67.3824L139.055 68.0794L141.146 69.2412L141.843 69.7059L142.307 69.0089L146.488 60.6442L146.953 59.9471L146.024 59.4824Z" fill="#226CEB"/>
<path opacity="0.6" d="M123.493 47.6324L121.635 46.703L119.545 45.5412L118.848 45.3088L118.383 46.2382L113.97 54.1383L113.738 55.0677L114.435 55.5324L116.525 56.6941L118.383 57.6236L119.312 57.8559L120.938 54.8353L122.332 51.8147L124.422 48.0971L123.493 47.6324Z" fill="#226CEB"/>
<g opacity="0.6">
<path opacity="0.6" d="M369.47 17.8912C368.076 16.0324 368.541 14.6383 368.541 14.6383L364.825 11.3853C349.03 24.1647 345.778 38.3383 342.526 42.753C339.507 46.9353 326.732 54.3706 319.067 73.1912L323.248 75.5147C323.248 75.5147 324.641 74.353 326.732 75.2824C328.822 76.2118 339.507 85.0412 348.566 73.1912C357.392 61.3412 349.495 54.1383 347.404 49.9559C346.011 47.4 347.404 46.2383 347.404 46.2383C347.404 46.2383 348.101 44.8441 350.888 45.0765C355.069 45.7736 364.592 51.35 373.419 39.2677C382.71 27.4177 371.096 19.5177 369.47 17.8912Z" fill="#226CEB"/>
<path opacity="0.6" d="M341.133 50.4206C339.042 50.4206 335.326 53.4412 331.842 58.3206C324.409 68.3118 327.196 70.1706 329.287 71.7971L329.519 72.0294C330.448 72.7265 332.074 73.8882 333.932 74.8177C335.326 66.9177 338.346 58.7853 342.991 51.35C342.062 50.6529 341.597 50.4206 341.133 50.4206Z" fill="#80A7E0"/>
<path opacity="0.6" d="M367.38 20.6794C365.289 19.053 362.502 16.9618 355.301 26.953C351.585 31.8324 349.727 36.2471 350.424 38.3383C350.656 38.803 350.888 39.2677 351.585 39.7324C357.392 33.2265 364.36 27.8824 371.561 24.3971C369.935 22.5383 368.309 21.3765 367.38 20.6794Z" fill="#80A7E0"/>
</g>
<path opacity="0.6" d="M79.8259 66.2206V75.05H72.1609C69.6059 75.05 67.98 76.6765 67.98 79.2324H97.2464C97.2464 76.6765 95.6204 75.05 93.0654 75.05H85.1682V66.2206C84.2391 66.2206 83.5423 66.2206 82.6132 66.2206C81.4518 66.2206 80.5227 66.2206 79.8259 66.2206Z" fill="#80A7E0"/>
<path opacity="0.6" d="M103.053 36.4794C96.5495 36.4794 90.975 40.6618 88.42 38.5706C85.865 36.4794 87.0263 30.6706 92.3686 21.6088C97.7109 12.5471 95.8527 6.27354 92.3686 6.27354C88.8845 6.27354 78.8968 13.7088 71.6963 13.7088C64.4959 13.7088 62.1732 3.95001 58.4568 3.95001C62.6377 3.95001 64.0313 21.6088 64.0313 33.4588C64.0313 45.3088 69.3736 40.1971 71.4641 39.2677C73.5545 38.1059 79.8259 36.0147 87.9554 43.6824C96.085 51.35 97.9432 54.1382 102.589 54.1382C106.073 54.1382 109.325 52.5118 110.718 49.2588C111.183 47.1677 111.415 45.5412 111.415 45.5412C111.415 45.5412 112.344 36.4794 103.053 36.4794Z" fill="#80A7E0"/>
<path opacity="0.6" d="M102.357 53.9059C97.711 53.9059 95.8529 51.1176 87.7233 43.45C79.5938 35.7824 73.3224 37.8735 71.232 39.0353C69.1415 40.1971 63.7992 45.0765 63.7992 33.2265C63.7992 21.6088 62.4056 3.71765 58.2247 3.71765C52.6502 3.71765 53.347 16.7294 53.347 21.8412C53.347 26.7206 57.9924 63.2 79.8261 65.7559C80.7551 65.9882 81.452 65.9882 82.381 65.9882C83.3101 65.9882 84.007 65.9882 84.9361 65.9882C103.518 65.0588 109.092 54.6029 110.718 48.7941C109.325 52.2794 106.073 53.9059 102.357 53.9059Z" fill="#226CEB"/>
<g opacity="0.6">
<path opacity="0.6" d="M451.23 31.6001H401.524V28.8118H388.284V31.6001H379.922C376.903 31.6001 374.348 33.9236 374.348 37.1765V73.6559C374.348 76.6765 376.67 79.2324 379.922 79.2324H450.998C454.017 79.2324 456.572 76.9089 456.572 73.6559V37.1765C456.572 33.9236 454.25 31.6001 451.23 31.6001Z" fill="#226CEB"/>
<path opacity="0.6" d="M431.255 72.2618C440.619 72.2618 448.211 64.6678 448.211 55.3001C448.211 45.9324 440.619 38.3383 431.255 38.3383C421.89 38.3383 414.299 45.9324 414.299 55.3001C414.299 64.6678 421.89 72.2618 431.255 72.2618Z" fill="#B3CFF5"/>
<g opacity="0.6">
<path opacity="0.6" d="M442.404 49.2589C442.171 48.7942 441.939 48.7942 441.939 48.3295C441.475 47.6324 440.778 46.9353 440.313 46.2383C438.223 44.1471 434.739 42.5206 431.255 42.5206C424.286 42.5206 418.48 48.3295 418.48 55.3C418.48 58.7853 419.873 61.8059 422.196 64.3618C422.661 64.8265 423.59 65.5236 424.286 65.9883C424.751 66.2206 424.751 66.453 425.215 66.453C428.235 58.3206 434.506 52.0471 442.404 49.2589Z" fill="#D9E7FA"/>
</g>
<path opacity="0.6" d="M394.556 38.803H381.781V45.3089H394.556V38.803Z" fill="#D9E7FA"/>
</g>
<g opacity="0.6">
<path opacity="0.6" d="M321.157 27.8824H263.321L270.057 79H270.522H314.886L321.854 27.8824H321.157Z" fill="#80A7E0"/>
<path opacity="0.6" d="M303.969 33.9236C304.434 31.8324 304.434 29.7412 304.434 27.4177C304.434 13.7089 299.091 3.25299 292.588 3.25299C286.084 3.25299 280.742 13.9412 280.742 27.4177C280.742 29.5089 280.974 31.8324 281.206 33.9236C279.813 34.853 278.884 36.9442 278.884 39.0353C278.884 42.0559 280.742 44.8442 283.064 44.8442C285.387 44.8442 287.245 42.2883 287.245 39.0353C287.245 36.2471 285.852 34.1559 284.226 33.4589C283.994 31.3677 283.761 29.5089 283.761 27.4177C283.761 17.1942 287.478 6.04123 292.82 6.04123C298.162 6.04123 301.879 17.1942 301.879 27.4177C301.879 29.5089 301.646 31.6001 301.414 33.4589C299.556 34.1559 298.394 36.4795 298.394 39.0353C298.394 42.0559 300.253 44.8442 302.575 44.8442C304.898 44.8442 306.756 42.2883 306.756 39.0353C306.292 36.9442 305.363 34.853 303.969 33.9236Z" fill="#226CEB"/>
<path opacity="0.6" d="M263.321 27.8824L270.057 79H270.522C273.077 73.1912 274.47 66.2206 274.47 58.0883C274.703 44.3794 269.825 32.5294 263.321 27.8824Z" fill="#226CEB"/>
<path opacity="0.6" d="M321.854 27.8824L315.118 79H314.654C312.099 73.1912 310.705 66.2206 310.705 58.0883C310.473 44.3794 315.118 32.5294 321.854 27.8824Z" fill="#226CEB"/>
</g>
<g opacity="0.6">
<path opacity="0.6" d="M216.867 39.9647C218.957 47.8647 225.461 61.1088 225.461 79.2324H228.48L228.248 51.1177C228.016 50.8853 227.784 50.653 227.784 50.653C224.067 47.6324 218.26 44.3794 217.099 41.1265C217.099 40.4294 217.099 39.9647 216.867 39.9647Z" fill="#80A7E0"/>
<path opacity="0.6" d="M267.967 63.6647C266.805 64.1294 265.876 64.5941 264.947 65.0588C253.101 69.2412 243.81 62.2706 230.339 30.2059C228.016 24.3971 226.39 20.2147 226.39 20.2147C221.28 25.0941 218.26 29.2765 217.099 34.3883C216.867 35.55 216.635 36.7118 216.635 38.1059C216.635 38.5706 216.635 39.0353 216.635 39.5C216.635 39.7324 216.635 39.7324 216.635 39.9647C216.635 40.1971 216.867 40.4294 216.867 40.6618C218.028 43.9147 223.835 47.1677 227.551 50.1883C227.784 50.4206 228.016 50.653 228.016 50.653L228.248 50.8853C228.713 51.35 229.642 52.0471 230.106 52.5118C234.752 58.0883 237.307 68.5441 239.397 73.1912C241.952 79 250.779 79 250.779 79H261.695H283.297H286.316C286.781 72.7265 267.967 63.6647 267.967 63.6647Z" fill="#226CEB"/>
</g>
<g opacity="0.6">
<path opacity="0.6" d="M41.7332 78.5353C39.8751 77.8382 38.0169 77.1412 36.1587 76.4441C37.0878 67.3824 40.5719 58.7853 46.3787 51.8147C48.2369 52.5118 50.0951 53.2088 51.9532 54.1382C48.4691 62.0382 44.9851 70.4029 41.7332 78.5353Z" fill="#80A7E0"/>
<path opacity="0.6" d="M21.5254 78.5353C23.3836 77.8382 25.2418 77.1412 27.1 76.4441C26.1709 67.3824 22.6868 58.7853 16.88 51.8147C15.0218 52.5118 13.1636 53.2088 11.3054 54.1382C14.5572 62.0382 17.8091 70.4029 21.5254 78.5353Z" fill="#80A7E0"/>
<path opacity="0.6" d="M31.5132 22.0735C14.325 22.0735 0.388672 36.0147 0.388672 53.2089C0.388672 57.1589 1.08549 60.6442 2.47912 64.1295V64.3618L6.66003 73.8883L10.8409 72.0295L11.77 74.353C13.1637 78.0706 17.5768 79.9295 21.2932 78.303L18.5059 71.5648L13.8605 60.6442L11.0732 53.9059C8.05367 55.3 6.19549 58.0883 6.66003 61.3412C5.73094 58.7853 5.2664 55.9971 5.2664 53.2089C5.2664 46.703 7.82139 40.4294 11.77 36.0147C12.4668 36.4794 13.1637 36.9441 14.0928 36.9441C15.0218 36.9441 15.9509 36.4794 16.6478 36.0147C20.5964 32.7618 25.9387 30.6706 31.0487 30.6706C36.3909 30.6706 41.2686 32.5294 45.4496 36.0147C46.1464 36.4794 47.0755 36.9441 48.0046 36.9441C48.9336 36.9441 49.6305 36.4794 50.3273 36.0147C54.2759 40.6618 56.8309 46.703 56.8309 53.2089C56.8309 55.9971 56.3664 58.7853 55.4373 61.3412C55.6696 58.3206 54.0436 55.3 51.0241 53.9059L48.2368 60.6442L43.5914 71.5648L40.8041 78.303C44.5205 79.6971 48.9336 78.0706 50.3273 74.353L51.2564 72.0295L55.4373 73.8883L59.6182 64.3618V64.1295C61.0118 60.6442 61.7086 56.9265 61.7086 53.2089C62.6377 36.0147 48.7014 22.0735 31.5132 22.0735Z" fill="#226CEB"/>
</g>
</g>
</g>
<defs>
<clipPath id="clip0_3_521">
<rect width="457" height="79" fill="white"/>
</clipPath>
</defs>
</svg>
